<svg xmlns="http://www.w3.org/2000/svg" version="1.1" xmlns:xlink="http://www.w3.org/1999/xlink" xmlns:svgjs="http://svgjs.dev/svgjs" width="128" height="128" viewBox="0 0 128 128"><g transform="matrix(0.8046875,0,0,0.8046875,12.221578124999994,26.937996358580513)"><svg viewBox="0 0 96 69" data-background-color="#ffffff" preserveAspectRatio="xMidYMid meet" height="92" width="128" xmlns="http://www.w3.org/2000/svg" xmlns:xlink="http://www.w3.org/1999/xlink"><g id="tight-bounds" transform="matrix(1,0,0,1,0.25950000000000273,0.043226694915247776)"><svg viewBox="0 0 95.481 68.91354661016949" height="68.91354661016949" width="95.481"><g><svg viewBox="0 0 95.481 68.91354661016949" height="68.91354661016949" width="95.481"><g><svg viewBox="0 0 95.481 68.91354661016949" height="68.91354661016949" width="95.481"><g id="textblocktransform"><svg viewBox="0 0 95.481 68.91354661016949" height="68.91354661016949" width="95.481" id="textblock"><g><svg viewBox="0 0 95.481 68.91354661016949" height="68.91354661016949" width="95.481"><g><svg viewBox="0 0 95.481 68.91354661016949" height="68.91354661016949" width="95.481"><g><svg xmlns="http://www.w3.org/2000/svg" xmlns:xlink="http://www.w3.org/1999/xlink" version="1.1" x="0" y="0" viewBox="0 0 70.8 51.1" style="enable-background:new 0 0 70.8 51.1;" xml:space="preserve" id="icon-0" width="95.481" height="68.91354661016949" class="icon-icon-0" data-fill-palette-color="accent"><g fill="#fe6e63" data-fill-palette-color="accent"><path d="M53.9 14.6C54.5 15.5 55 16.4 55.5 17.5S56.2 19.7 56.4 20.8L70.8 27 60 0z" fill="#fe6e63" data-fill-palette-color="accent"></path><path d="M54.5 17.9C54.2 17.1 53.9 16.5 53.5 15.9 51.8 13.1 48.9 11.2 44.9 10.2 40.1 9 35.1 9.5 29.9 11.6 24.6 13.6 20.6 16.8 17.9 21 15.4 25.3 14.9 29.3 16.4 33.2 17.9 37 21.1 39.6 25.9 40.8 30.8 42 35.8 41.6 41 39.5 46.3 37.4 50.3 34.2 52.9 30 55 26.5 55.8 23.2 55.1 20 55 19.3 54.8 18.6 54.5 17.9M46.5 14.3C47.101 14.7 47.2 15 46.8 14.8 42 13.6 37 14.1 31.7 16.1 26.4 18.2 22.4 21.4 19.8 25.7 19.6 26 19.6 25.7 19.8 25 19.9 24.1 20.1 23.3 20.6 22.5 22.8 18.5 26.1 15.6 30.7 13.7 35.3 11.9 39.8 11.7 44.1 13.1 45 13.4 45.8 13.8 46.5 14.3" fill="#fe6e63" data-fill-palette-color="accent"></path><path d="M14.601 30.2L0 24.1 10.9 51.1 17.1 36.5C16.4 35.7 15.8 34.7 15.4 33.6 14.9 32.5 14.7 31.4 14.601 30.2" fill="#fe6e63" data-fill-palette-color="accent"></path></g></svg></g></svg></g></svg></g></svg></g></svg></g><g></g></svg></g><defs></defs></svg><rect width="95.481" height="68.91354661016949" fill="none" stroke="none" visibility="hidden"></rect></g></svg></g></svg>